<svg xmlns="http://www.w3.org/2000/svg" xmlns:xlink="http://www.w3.org/1999/xlink" width="480" zoomAndPan="magnify" viewBox="0 0 360 503.999982" height="672" preserveAspectRatio="xMidYMid meet" version="1.0"><defs><clipPath id="f58caad6ad"><path d="M 85 247 L 274 247 L 274 340.445312 L 85 340.445312 Z M 85 247 " clip-rule="nonzero"/></clipPath><clipPath id="afd1920ea3"><path d="M 70 233 L 289 233 L 289 340.445312 L 70 340.445312 Z M 70 233 " clip-rule="nonzero"/></clipPath><clipPath id="dc4f2cdd24"><path d="M 52 215 L 307 215 L 307 340.445312 L 52 340.445312 Z M 52 215 " clip-rule="nonzero"/></clipPath><clipPath id="3e59782ba1"><path d="M 32 195 L 328 195 L 328 340.445312 L 32 340.445312 Z M 32 195 " clip-rule="nonzero"/></clipPath><clipPath id="cd8d2f728c"><path d="M 9 172 L 351 172 L 351 340.445312 L 9 340.445312 Z M 9 172 " clip-rule="nonzero"/></clipPath><clipPath id="d0269f3239"><path d="M 82 163.445312 L 92 163.445312 L 92 173 L 82 173 Z M 82 163.445312 " clip-rule="nonzero"/></clipPath></defs><g clip-path="url(#f58caad6ad)"><path fill="#f49b72" d="M 98.65625 340.40625 C 100.035156 327.121094 103.027344 314.011719 109.128906 302.078125 C 118.667969 283.425781 135.410156 272.765625 154.878906 266.445312 C 175.234375 259.835938 197.828125 258.300781 218.132812 265.828125 C 236.9375 272.800781 248.101562 289.417969 254.121094 307.78125 C 257.589844 318.367188 259.597656 329.375 261.164062 340.40625 L 273.976562 340.40625 C 271.640625 323.792969 268.472656 307.371094 261.652344 291.890625 C 253.191406 272.6875 237.8125 258.800781 217.929688 252.210938 C 197.035156 245.28125 173.472656 247.425781 152.71875 253.703125 C 132.28125 259.886719 114.222656 270.667969 102.171875 288.621094 C 91.96875 303.820312 87.523438 322.132812 85.785156 340.40625 Z M 98.65625 340.40625 " fill-opacity="1" fill-rule="nonzero"/></g><g clip-path="url(#afd1920ea3)"><path fill="#faef82" d="M 85.765625 340.40625 C 87.363281 325.015625 90.832031 309.820312 97.902344 295.992188 C 108.953125 274.382812 128.355469 262.03125 150.914062 254.707031 C 174.496094 247.050781 200.675781 245.265625 224.207031 253.992188 C 245.996094 262.070312 258.929688 281.328125 265.90625 302.605469 C 269.925781 314.867188 272.25 327.625 274.0625 340.40625 L 288.90625 340.40625 C 286.203125 321.15625 282.535156 302.128906 274.628906 284.191406 C 264.824219 261.941406 247.007812 245.851562 223.96875 238.214844 C 199.757812 230.183594 172.457031 232.671875 148.410156 239.945312 C 124.726562 247.109375 103.804688 259.601562 89.84375 280.402344 C 78.015625 298.015625 72.867188 319.234375 70.851562 340.40625 Z M 85.765625 340.40625 " fill-opacity="1" fill-rule="nonzero"/></g><g clip-path="url(#dc4f2cdd24)"><path fill="#9dd8f7" d="M 70.273438 340.40625 C 72.132812 322.480469 76.171875 304.789062 84.40625 288.683594 C 97.277344 263.511719 119.871094 249.125 146.144531 240.601562 C 173.609375 231.683594 204.097656 229.605469 231.503906 239.765625 C 256.875 249.175781 271.941406 271.601562 280.066406 296.382812 C 284.75 310.667969 287.453125 325.519531 289.566406 340.40625 L 306.855469 340.40625 C 303.703125 317.988281 299.433594 295.824219 290.226562 274.933594 C 278.808594 249.027344 258.058594 230.285156 231.226562 221.390625 C 203.03125 212.042969 171.234375 214.9375 143.226562 223.40625 C 115.644531 231.75 91.28125 246.300781 75.019531 270.527344 C 61.25 291.042969 55.253906 315.75 52.902344 340.40625 Z M 70.273438 340.40625 " fill-opacity="1" fill-rule="nonzero"/></g><g clip-path="url(#3e59782ba1)"><path fill="#b298c8" d="M 52.523438 340.40625 C 54.679688 319.574219 59.378906 299.019531 68.945312 280.304688 C 83.898438 251.058594 110.152344 234.34375 140.679688 224.433594 C 172.597656 214.074219 208.023438 211.660156 239.863281 223.464844 C 269.347656 234.398438 286.855469 260.453125 296.292969 289.253906 C 301.734375 305.847656 304.878906 323.109375 307.335938 340.40625 L 327.421875 340.40625 C 323.761719 314.359375 318.796875 288.605469 308.101562 264.332031 C 294.832031 234.222656 270.722656 212.449219 239.546875 202.117188 C 206.78125 191.253906 169.832031 194.617188 137.292969 204.457031 C 105.246094 214.148438 76.933594 231.0625 58.039062 259.210938 C 42.035156 283.046875 35.066406 311.753906 32.339844 340.40625 Z M 52.523438 340.40625 " fill-opacity="1" fill-rule="nonzero"/></g><g clip-path="url(#cd8d2f728c)"><path fill="#f195be" d="M 32.445312 340.40625 C 34.945312 316.292969 40.382812 292.496094 51.457031 270.832031 C 68.769531 236.972656 99.160156 217.625 134.5 206.15625 C 171.449219 194.160156 212.457031 191.363281 249.316406 205.03125 C 283.453125 217.6875 303.714844 247.851562 314.644531 281.191406 C 320.941406 300.398438 324.578125 320.382812 327.425781 340.40625 L 350.675781 340.40625 C 346.441406 310.253906 340.695312 280.4375 328.3125 252.339844 C 312.949219 217.488281 285.039062 192.277344 248.949219 180.3125 C 211.019531 167.742188 168.25 171.632812 130.578125 183.027344 C 93.480469 194.246094 60.703125 213.824219 38.828125 246.410156 C 20.304688 274 12.242188 307.238281 9.082031 340.40625 Z M 32.445312 340.40625 " fill-opacity="1" fill-rule="nonzero"/></g><path fill="#fdfefd" d="M 18.199219 317.402344 C 18.253906 306.148438 22.097656 295.441406 25.199219 284.761719 C 25.65625 283.191406 23.207031 282.519531 22.753906 284.089844 C 19.585938 294.992188 15.71875 305.910156 15.664062 317.402344 C 15.65625 319.035156 18.191406 319.035156 18.199219 317.402344 Z M 18.199219 317.402344 " fill-opacity="1" fill-rule="nonzero"/><path fill="#fdfefd" d="M 28.738281 275.199219 C 29.019531 274.636719 29.300781 274.070312 29.582031 273.507812 C 29.675781 273.363281 29.722656 273.203125 29.730469 273.035156 C 29.769531 272.867188 29.761719 272.699219 29.710938 272.53125 C 29.671875 272.367188 29.59375 272.222656 29.484375 272.101562 C 29.394531 271.960938 29.273438 271.851562 29.125 271.773438 C 28.832031 271.617188 28.476562 271.539062 28.148438 271.644531 C 27.847656 271.742188 27.539062 271.933594 27.390625 272.226562 C 27.109375 272.792969 26.828125 273.355469 26.546875 273.921875 C 26.453125 274.066406 26.402344 274.222656 26.394531 274.390625 C 26.359375 274.5625 26.367188 274.730469 26.417969 274.898438 C 26.457031 275.0625 26.53125 275.207031 26.644531 275.328125 C 26.734375 275.464844 26.851562 275.574219 27 275.65625 C 27.296875 275.8125 27.652344 275.890625 27.980469 275.785156 C 28.28125 275.683594 28.589844 275.496094 28.738281 275.199219 Z M 28.738281 275.199219 " fill-opacity="1" fill-rule="nonzero"/><path fill="#fdfefd" d="M 30.273438 288.988281 C 30.410156 288.574219 30.550781 288.160156 30.664062 287.738281 C 30.78125 287.304688 30.878906 286.847656 30.882812 286.398438 C 30.886719 286.074219 30.738281 285.730469 30.511719 285.5 C 30.289062 285.28125 29.929688 285.117188 29.613281 285.128906 C 29.285156 285.144531 28.945312 285.253906 28.71875 285.5 C 28.488281 285.75 28.347656 286.054688 28.347656 286.398438 C 28.34375 286.5 28.335938 286.601562 28.324219 286.703125 C 28.339844 286.589844 28.351562 286.476562 28.367188 286.363281 C 28.277344 287.03125 28.039062 287.679688 27.828125 288.3125 C 27.726562 288.617188 27.796875 289.023438 27.957031 289.292969 C 28.109375 289.554688 28.414062 289.804688 28.714844 289.875 C 29.039062 289.949219 29.402344 289.933594 29.691406 289.746094 C 29.976562 289.5625 30.164062 289.316406 30.273438 288.988281 Z M 30.273438 288.988281 " fill-opacity="1" fill-rule="nonzero"/><path fill="#fdfefd" d="M 84.902344 226.414062 C 90.96875 221.714844 96.730469 216.613281 103.246094 212.519531 C 104.625 211.65625 103.355469 209.457031 101.964844 210.332031 C 95.269531 214.539062 89.34375 219.789062 83.109375 224.621094 C 82.5625 225.042969 82.671875 225.96875 83.109375 226.414062 C 83.636719 226.953125 84.363281 226.832031 84.902344 226.414062 Z M 84.902344 226.414062 " fill-opacity="1" fill-rule="nonzero"/><path fill="#fdfefd" d="M 109.933594 209.03125 C 110.113281 209.027344 110.3125 209.007812 110.480469 208.941406 C 110.667969 208.867188 110.847656 208.792969 111.019531 208.6875 C 111.246094 208.554688 111.464844 208.410156 111.699219 208.292969 C 111.847656 208.214844 111.96875 208.105469 112.058594 207.964844 C 112.167969 207.84375 112.246094 207.699219 112.285156 207.535156 C 112.335938 207.367188 112.34375 207.199219 112.304688 207.03125 C 112.296875 206.859375 112.25 206.703125 112.15625 206.558594 C 112.089844 206.472656 112.023438 206.386719 111.957031 206.300781 C 111.800781 206.144531 111.613281 206.035156 111.398438 205.976562 C 111.285156 205.960938 111.171875 205.945312 111.0625 205.929688 C 110.832031 205.929688 110.617188 205.988281 110.421875 206.101562 C 110.242188 206.191406 110.066406 206.296875 109.898438 206.402344 C 109.773438 206.476562 109.652344 206.554688 109.519531 206.613281 C 109.621094 206.570312 109.722656 206.527344 109.824219 206.488281 C 109.769531 206.507812 109.714844 206.527344 109.65625 206.535156 C 109.769531 206.519531 109.882812 206.503906 109.992188 206.488281 C 109.972656 206.492188 109.953125 206.492188 109.933594 206.492188 C 109.757812 206.488281 109.59375 206.523438 109.445312 206.601562 C 109.285156 206.65625 109.152344 206.742188 109.035156 206.863281 C 108.914062 206.980469 108.824219 207.117188 108.773438 207.273438 C 108.695312 207.425781 108.65625 207.589844 108.664062 207.761719 C 108.679688 207.875 108.695312 207.988281 108.710938 208.097656 C 108.769531 208.3125 108.878906 208.5 109.035156 208.660156 C 109.121094 208.726562 109.207031 208.792969 109.292969 208.855469 C 109.492188 208.972656 109.707031 209.03125 109.933594 209.03125 Z M 109.933594 209.03125 " fill-opacity="1" fill-rule="nonzero"/><path fill="#fdfefd" d="M 69.492188 322.472656 C 70.640625 309.394531 75.082031 296.757812 82 285.628906 C 82.867188 284.238281 80.671875 282.964844 79.8125 284.347656 C 72.648438 295.871094 68.144531 308.945312 66.957031 322.476562 C 66.8125 324.097656 69.351562 324.089844 69.492188 322.472656 Z M 69.492188 322.472656 " fill-opacity="1" fill-rule="nonzero"/><path fill="#fdfefd" d="M 85.746094 279.121094 C 86.125 278.746094 86.5 278.371094 86.875 277.992188 C 87 277.878906 87.085938 277.742188 87.136719 277.585938 C 87.214844 277.433594 87.253906 277.269531 87.246094 277.09375 C 87.253906 276.921875 87.214844 276.757812 87.136719 276.605469 C 87.085938 276.449219 86.996094 276.3125 86.875 276.199219 C 86.789062 276.132812 86.703125 276.066406 86.617188 276 C 86.421875 275.886719 86.207031 275.828125 85.976562 275.828125 C 85.867188 275.84375 85.753906 275.855469 85.640625 275.871094 C 85.425781 275.933594 85.238281 276.042969 85.082031 276.199219 C 84.707031 276.574219 84.332031 276.949219 83.953125 277.328125 C 83.832031 277.441406 83.742188 277.578125 83.691406 277.734375 C 83.613281 277.886719 83.578125 278.050781 83.582031 278.222656 C 83.574219 278.398438 83.613281 278.5625 83.691406 278.714844 C 83.742188 278.871094 83.832031 279.007812 83.953125 279.121094 C 84.039062 279.1875 84.125 279.253906 84.210938 279.320312 C 84.410156 279.433594 84.621094 279.492188 84.851562 279.492188 C 84.964844 279.476562 85.078125 279.460938 85.1875 279.445312 C 85.402344 279.386719 85.589844 279.277344 85.746094 279.121094 Z M 85.746094 279.121094 " fill-opacity="1" fill-rule="nonzero"/><path fill="#fdfefd" d="M 93.921875 268.128906 C 94.203125 267.847656 94.484375 267.5625 94.765625 267.28125 C 94.890625 267.167969 94.976562 267.03125 95.027344 266.875 C 95.109375 266.722656 95.144531 266.558594 95.136719 266.386719 C 95.144531 266.210938 95.109375 266.046875 95.027344 265.894531 C 94.976562 265.738281 94.890625 265.601562 94.765625 265.488281 C 94.679688 265.421875 94.59375 265.355469 94.511719 265.289062 C 94.3125 265.175781 94.097656 265.117188 93.871094 265.117188 C 93.757812 265.132812 93.644531 265.148438 93.53125 265.164062 C 93.320312 265.222656 93.132812 265.332031 92.972656 265.488281 C 92.691406 265.769531 92.410156 266.050781 92.128906 266.332031 C 92.003906 266.449219 91.917969 266.585938 91.867188 266.742188 C 91.785156 266.894531 91.75 267.058594 91.757812 267.230469 C 91.75 267.40625 91.785156 267.570312 91.867188 267.71875 C 91.917969 267.878906 92.003906 268.011719 92.128906 268.128906 C 92.214844 268.195312 92.296875 268.261719 92.386719 268.328125 C 92.582031 268.441406 92.796875 268.5 93.027344 268.5 C 93.136719 268.484375 93.25 268.46875 93.363281 268.453125 C 93.578125 268.394531 93.761719 268.285156 93.921875 268.128906 Z M 93.921875 268.128906 " fill-opacity="1" fill-rule="nonzero"/><path fill="#fdfefd" d="M 241.207031 241.679688 C 246.972656 243.535156 252.222656 246.953125 256.867188 250.78125 C 261.5 254.601562 265.773438 258.980469 269.195312 263.925781 C 270.121094 265.257812 272.320312 263.992188 271.386719 262.644531 C 267.761719 257.410156 263.28125 252.753906 258.351562 248.734375 C 253.429688 244.722656 247.960938 241.191406 241.882812 239.234375 C 240.324219 238.730469 239.65625 241.179688 241.207031 241.679688 Z M 241.207031 241.679688 " fill-opacity="1" fill-rule="nonzero"/><path fill="#fdfefd" d="M 272.578125 270.691406 C 273.34375 271.710938 274.066406 272.765625 274.832031 273.789062 C 275.039062 274.066406 275.246094 274.277344 275.589844 274.375 C 275.894531 274.457031 276.296875 274.417969 276.566406 274.246094 C 276.839844 274.070312 277.078125 273.8125 277.152344 273.488281 C 277.222656 273.175781 277.222656 272.777344 277.023438 272.511719 C 276.257812 271.488281 275.535156 270.433594 274.769531 269.410156 C 274.5625 269.136719 274.355469 268.921875 274.011719 268.828125 C 273.707031 268.742188 273.304688 268.78125 273.035156 268.953125 C 272.761719 269.128906 272.523438 269.390625 272.449219 269.710938 C 272.378906 270.023438 272.378906 270.421875 272.578125 270.691406 Z M 272.578125 270.691406 " fill-opacity="1" fill-rule="nonzero"/><path fill="#fdfefd" d="M 278.214844 283.371094 C 278.636719 284.007812 279 284.667969 279.34375 285.34375 C 279.480469 285.621094 279.8125 285.847656 280.101562 285.929688 C 280.402344 286.011719 280.808594 285.972656 281.078125 285.800781 C 281.347656 285.625 281.585938 285.367188 281.660156 285.042969 C 281.675781 284.929688 281.691406 284.816406 281.707031 284.707031 C 281.707031 284.476562 281.648438 284.261719 281.535156 284.066406 C 281.191406 283.386719 280.828125 282.726562 280.40625 282.09375 C 280.222656 281.816406 279.972656 281.601562 279.648438 281.507812 C 279.34375 281.425781 278.941406 281.464844 278.671875 281.636719 C 278.398438 281.8125 278.160156 282.074219 278.085938 282.394531 C 278.011719 282.71875 278.027344 283.089844 278.214844 283.371094 Z M 278.214844 283.371094 " fill-opacity="1" fill-rule="nonzero"/><path fill="#fdfefd" d="M 282.898438 205.191406 C 288.902344 208.015625 294.464844 211.675781 299.304688 216.234375 C 304.226562 220.867188 308.304688 226.273438 311.753906 232.078125 C 312.585938 233.480469 314.777344 232.203125 313.941406 230.796875 C 306.808594 218.785156 296.886719 208.976562 284.175781 203 C 282.707031 202.3125 281.417969 204.496094 282.898438 205.191406 Z M 282.898438 205.191406 " fill-opacity="1" fill-rule="nonzero"/><path fill="#fdfefd" d="M 317.953125 244.476562 C 318.261719 244.9375 318.628906 245.351562 319.019531 245.742188 C 319.339844 246.066406 319.664062 246.382812 319.945312 246.746094 C 319.878906 246.660156 319.8125 246.574219 319.75 246.488281 C 319.808594 246.570312 319.867188 246.648438 319.925781 246.734375 C 320.109375 247.007812 320.355469 247.226562 320.683594 247.316406 C 320.984375 247.398438 321.390625 247.363281 321.660156 247.1875 C 321.929688 247.015625 322.167969 246.753906 322.242188 246.429688 C 322.316406 246.109375 322.304688 245.734375 322.113281 245.453125 C 321.804688 244.992188 321.4375 244.582031 321.050781 244.1875 C 320.726562 243.867188 320.402344 243.546875 320.121094 243.1875 C 320.1875 243.273438 320.253906 243.359375 320.320312 243.445312 C 320.257812 243.363281 320.199219 243.28125 320.140625 243.199219 C 319.957031 242.921875 319.710938 242.703125 319.382812 242.613281 C 319.078125 242.53125 318.675781 242.570312 318.40625 242.742188 C 318.136719 242.917969 317.898438 243.175781 317.824219 243.5 C 317.75 243.820312 317.761719 244.195312 317.953125 244.476562 Z M 317.953125 244.476562 " fill-opacity="1" fill-rule="nonzero"/><path fill="#fdfefd" d="M 324.996094 258.570312 C 325.488281 259.308594 325.917969 260.085938 326.40625 260.828125 C 326.589844 261.101562 326.839844 261.320312 327.164062 261.410156 C 327.46875 261.492188 327.871094 261.457031 328.140625 261.28125 C 328.410156 261.105469 328.652344 260.847656 328.722656 260.523438 C 328.796875 260.203125 328.785156 259.832031 328.597656 259.546875 C 328.105469 258.808594 327.679688 258.03125 327.1875 257.292969 C 327.003906 257.015625 326.753906 256.796875 326.429688 256.707031 C 326.125 256.625 325.722656 256.664062 325.453125 256.835938 C 325.183594 257.011719 324.941406 257.269531 324.871094 257.59375 C 324.796875 257.914062 324.808594 258.289062 324.996094 258.570312 Z M 324.996094 258.570312 " fill-opacity="1" fill-rule="nonzero"/><path fill="#fdfefd" d="M 268.695312 336.339844 C 269.261719 333.390625 268.757812 330.492188 268.460938 327.546875 C 268.390625 326.890625 267.925781 326.246094 267.191406 326.28125 C 266.5625 326.308594 265.851562 326.839844 265.921875 327.546875 C 266.195312 330.222656 266.761719 333.003906 266.25 335.664062 C 266.125 336.316406 266.433594 337.066406 267.136719 337.226562 C 267.761719 337.367188 268.5625 337.035156 268.695312 336.339844 Z M 268.695312 336.339844 " fill-opacity="1" fill-rule="nonzero"/><path fill="#fdfefd" d="M 265.878906 314.527344 C 265.367188 313.246094 265.019531 311.929688 264.75 310.582031 C 264.617188 309.929688 263.808594 309.492188 263.191406 309.695312 C 262.496094 309.917969 262.164062 310.554688 262.304688 311.253906 C 262.574219 312.601562 262.921875 313.921875 263.429688 315.199219 C 263.558594 315.519531 263.707031 315.777344 264.015625 315.957031 C 264.285156 316.117188 264.6875 316.183594 264.992188 316.085938 C 265.296875 315.988281 265.59375 315.796875 265.75 315.503906 C 265.898438 315.222656 266 314.839844 265.878906 314.527344 Z M 265.878906 314.527344 " fill-opacity="1" fill-rule="nonzero"/><path fill="#fdfefd" d="M 162.402344 233.742188 C 162.4375 233.710938 162.476562 233.675781 162.515625 233.648438 C 162.429688 233.714844 162.34375 233.777344 162.257812 233.84375 C 162.324219 233.792969 162.398438 233.75 162.476562 233.714844 C 162.375 233.757812 162.273438 233.800781 162.171875 233.84375 C 162.234375 233.820312 162.300781 233.800781 162.367188 233.789062 C 162.253906 233.804688 162.140625 233.820312 162.027344 233.835938 C 162.042969 233.835938 162.058594 233.832031 162.070312 233.832031 C 162.246094 233.839844 162.410156 233.800781 162.5625 233.722656 C 162.71875 233.671875 162.855469 233.582031 162.96875 233.460938 C 163.09375 233.347656 163.179688 233.210938 163.230469 233.050781 C 163.3125 232.902344 163.347656 232.738281 163.339844 232.5625 C 163.324219 232.449219 163.3125 232.335938 163.296875 232.226562 C 163.234375 232.011719 163.125 231.824219 162.96875 231.664062 C 162.882812 231.597656 162.796875 231.535156 162.714844 231.46875 C 162.515625 231.351562 162.300781 231.292969 162.074219 231.292969 C 161.945312 231.292969 161.800781 231.328125 161.6875 231.34375 C 161.640625 231.351562 161.597656 231.363281 161.554688 231.375 C 161.425781 231.421875 161.300781 231.480469 161.175781 231.535156 C 161.140625 231.550781 161.109375 231.566406 161.078125 231.585938 C 160.953125 231.660156 160.832031 231.765625 160.722656 231.851562 C 160.683594 231.882812 160.648438 231.914062 160.613281 231.949219 C 160.488281 232.0625 160.402344 232.199219 160.351562 232.355469 C 160.269531 232.507812 160.234375 232.671875 160.242188 232.847656 C 160.234375 233.019531 160.269531 233.183594 160.351562 233.335938 C 160.402344 233.492188 160.488281 233.628906 160.613281 233.742188 C 160.699219 233.808594 160.785156 233.875 160.871094 233.941406 C 161.066406 234.054688 161.28125 234.113281 161.511719 234.113281 C 161.621094 234.097656 161.734375 234.085938 161.847656 234.070312 C 162.058594 234.011719 162.246094 233.902344 162.402344 233.742188 Z M 162.402344 233.742188 " fill-opacity="1" fill-rule="nonzero"/><path fill="#fdfefd" d="M 167.144531 245.671875 C 167.800781 245.671875 168.457031 245.671875 169.117188 245.671875 C 169.441406 245.671875 169.78125 245.53125 170.011719 245.300781 C 170.234375 245.078125 170.398438 244.71875 170.382812 244.402344 C 170.371094 244.074219 170.261719 243.734375 170.011719 243.507812 C 169.765625 243.277344 169.460938 243.132812 169.117188 243.132812 C 168.457031 243.132812 167.800781 243.132812 167.144531 243.132812 C 166.820312 243.132812 166.476562 243.277344 166.246094 243.507812 C 166.027344 243.726562 165.863281 244.085938 165.875 244.402344 C 165.890625 244.730469 165.996094 245.070312 166.246094 245.300781 C 166.496094 245.527344 166.800781 245.671875 167.144531 245.671875 Z M 167.144531 245.671875 " fill-opacity="1" fill-rule="nonzero"/><path fill="#fdfefd" d="M 99.882812 319.429688 C 100.6875 317.285156 101.574219 315.171875 102.136719 312.945312 C 102.300781 312.304688 101.929688 311.539062 101.25 311.386719 C 100.59375 311.234375 99.867188 311.582031 99.691406 312.269531 C 99.128906 314.496094 98.242188 316.613281 97.4375 318.753906 C 97.203125 319.378906 97.695312 320.171875 98.324219 320.316406 C 99.042969 320.480469 99.632812 320.09375 99.882812 319.429688 Z M 99.882812 319.429688 " fill-opacity="1" fill-rule="nonzero"/><path fill="#fdfefd" d="M 170.863281 179.390625 C 172.644531 179.09375 174.425781 178.800781 176.21875 178.546875 C 176.507812 178.503906 176.832031 178.203125 176.976562 177.960938 C 177.132812 177.691406 177.199219 177.289062 177.101562 176.984375 C 177.003906 176.679688 176.8125 176.382812 176.519531 176.226562 C 176.199219 176.058594 175.898438 176.046875 175.542969 176.097656 C 173.753906 176.355469 171.972656 176.648438 170.1875 176.945312 C 169.53125 177.050781 169.105469 177.898438 169.300781 178.503906 C 169.53125 179.214844 170.160156 179.507812 170.863281 179.390625 Z M 170.863281 179.390625 " fill-opacity="1" fill-rule="nonzero"/><path fill="#fdfefd" d="M 53.535156 235.175781 C 53.8125 234.761719 54.105469 234.351562 54.402344 233.949219 C 54.554688 233.742188 54.707031 233.539062 54.863281 233.332031 C 54.953125 233.21875 54.898438 233.28125 54.84375 233.359375 C 54.882812 233.304688 54.921875 233.253906 54.964844 233.207031 C 55.054688 233.089844 55.144531 232.972656 55.234375 232.859375 C 55.90625 232.015625 56.59375 231.1875 57.285156 230.359375 C 57.503906 230.097656 57.65625 229.820312 57.65625 229.464844 C 57.65625 229.152344 57.515625 228.78125 57.285156 228.566406 C 56.816406 228.136719 55.941406 228.023438 55.488281 228.566406 C 54.050781 230.296875 52.597656 232.027344 51.347656 233.898438 C 50.976562 234.453125 51.222656 235.328125 51.800781 235.632812 C 52.441406 235.96875 53.140625 235.765625 53.535156 235.175781 Z M 53.535156 235.175781 " fill-opacity="1" fill-rule="nonzero"/><path fill="#fdfefd" d="M 223.226562 202.546875 C 223.492188 202.578125 223.753906 202.613281 224.015625 202.648438 C 223.710938 202.609375 224.179688 202.671875 224.230469 202.679688 C 224.339844 202.695312 224.449219 202.710938 224.558594 202.726562 C 225.070312 202.804688 225.585938 202.890625 226.09375 202.996094 C 226.574219 203.097656 227.054688 203.210938 227.527344 203.351562 C 227.765625 203.421875 228 203.496094 228.234375 203.582031 C 228.351562 203.621094 228.46875 203.664062 228.585938 203.710938 C 228.632812 203.726562 229.058594 203.902344 228.785156 203.785156 C 229.113281 203.921875 229.402344 204.011719 229.761719 203.914062 C 230.054688 203.832031 230.375 203.605469 230.519531 203.328125 C 230.808594 202.785156 230.71875 201.871094 230.066406 201.59375 C 228.992188 201.140625 227.910156 200.789062 226.769531 200.550781 C 225.597656 200.308594 224.410156 200.160156 223.226562 200.011719 C 222.566406 199.925781 221.929688 200.652344 221.957031 201.28125 C 221.992188 202.035156 222.519531 202.457031 223.226562 202.546875 Z M 223.226562 202.546875 " fill-opacity="1" fill-rule="nonzero"/><path fill="#f195be" d="M 125.679688 330.453125 C 126.117188 330.902344 126.75 331.109375 127.367188 331 C 128.925781 330.730469 130.117188 332.363281 129.382812 333.765625 C 129.089844 334.320312 129.09375 334.984375 129.386719 335.539062 C 130.125 336.9375 128.9375 338.574219 127.378906 338.308594 C 126.761719 338.203125 126.128906 338.410156 125.691406 338.859375 C 124.589844 339.992188 122.667969 339.371094 122.441406 337.804688 C 122.347656 337.183594 121.957031 336.652344 121.394531 336.371094 C 119.976562 335.675781 119.972656 333.652344 121.390625 332.953125 C 121.949219 332.675781 122.339844 332.136719 122.429688 331.515625 C 122.65625 329.953125 124.574219 329.324219 125.679688 330.453125 Z M 125.679688 330.453125 " fill-opacity="1" fill-rule="nonzero"/><path fill="#b298c8" d="M 112.980469 319.859375 C 113.214844 320.398438 113.699219 320.792969 114.277344 320.90625 C 115.734375 321.191406 116.226562 323.023438 115.113281 324.007812 C 114.671875 324.394531 114.449219 324.976562 114.515625 325.5625 C 114.695312 327.039062 113.105469 328.074219 111.828125 327.316406 C 111.320312 327.015625 110.699219 326.984375 110.164062 327.234375 C 108.816406 327.855469 107.339844 326.664062 107.664062 325.214844 C 107.792969 324.640625 107.632812 324.039062 107.234375 323.605469 C 106.222656 322.519531 106.898438 320.742188 108.378906 320.605469 C 108.964844 320.550781 109.488281 320.210938 109.773438 319.695312 C 110.496094 318.402344 112.390625 318.496094 112.980469 319.859375 Z M 112.980469 319.859375 " fill-opacity="1" fill-rule="nonzero"/><path fill="#faef82" d="M 85.261719 180.417969 C 86.074219 180.953125 87.101562 181.054688 88.003906 180.6875 C 90.277344 179.765625 92.621094 181.847656 91.972656 184.21875 C 91.714844 185.15625 91.9375 186.160156 92.5625 186.90625 C 94.144531 188.785156 92.886719 191.660156 90.433594 191.773438 C 89.460938 191.816406 88.570312 192.335938 88.054688 193.167969 C 86.761719 195.25 83.636719 194.941406 82.773438 192.644531 C 82.429688 191.734375 81.660156 191.046875 80.714844 190.8125 C 78.332031 190.226562 77.660156 187.160156 79.574219 185.625 C 80.335938 185.019531 80.75 184.074219 80.683594 183.101562 C 80.503906 180.652344 83.210938 179.066406 85.261719 180.417969 Z M 85.261719 180.417969 " fill-opacity="1" fill-rule="nonzero"/><path fill="#f195be" d="M 102.433594 172.269531 C 102.957031 172.613281 103.617188 172.679688 104.199219 172.445312 C 105.660156 171.851562 107.171875 173.191406 106.753906 174.714844 C 106.585938 175.320312 106.730469 175.96875 107.136719 176.449219 C 108.152344 177.660156 107.34375 179.507812 105.765625 179.582031 C 105.136719 179.609375 104.5625 179.949219 104.230469 180.480469 C 103.398438 181.824219 101.386719 181.625 100.828125 180.148438 C 100.609375 179.558594 100.113281 179.117188 99.503906 178.964844 C 97.96875 178.585938 97.535156 176.613281 98.769531 175.625 C 99.261719 175.234375 99.527344 174.625 99.480469 174 C 99.367188 172.421875 101.113281 171.402344 102.433594 172.269531 Z M 102.433594 172.269531 " fill-opacity="1" fill-rule="nonzero"/><g clip-path="url(#d0269f3239)"><path fill="#b298c8" d="M 87.765625 164.621094 C 88.109375 165.097656 88.667969 165.378906 89.257812 165.367188 C 90.738281 165.339844 91.613281 167.023438 90.734375 168.21875 C 90.382812 168.695312 90.289062 169.308594 90.480469 169.867188 C 90.96875 171.269531 89.636719 172.621094 88.226562 172.152344 C 87.667969 171.96875 87.054688 172.070312 86.585938 172.421875 C 85.402344 173.320312 83.703125 172.46875 83.714844 170.984375 C 83.71875 170.394531 83.429688 169.84375 82.949219 169.507812 C 81.730469 168.65625 82.011719 166.777344 83.429688 166.332031 C 83.988281 166.152344 84.425781 165.707031 84.597656 165.140625 C 85.03125 163.722656 86.902344 163.414062 87.765625 164.621094 Z M 87.765625 164.621094 " fill-opacity="1" fill-rule="nonzero"/></g><path fill="#99cda3" d="M 328.667969 226.605469 C 328.722656 227.191406 329.0625 227.71875 329.574219 228.003906 C 330.867188 228.726562 330.769531 230.625 329.40625 231.210938 C 328.867188 231.445312 328.472656 231.925781 328.359375 232.507812 C 328.070312 233.964844 326.234375 234.453125 325.257812 233.335938 C 324.871094 232.894531 324.289062 232.671875 323.703125 232.742188 C 322.226562 232.917969 321.195312 231.324219 321.953125 230.046875 C 322.253906 229.542969 322.285156 228.921875 322.039062 228.386719 C 321.417969 227.039062 322.613281 225.5625 324.058594 225.890625 C 324.632812 226.019531 325.234375 225.859375 325.667969 225.457031 C 326.757812 224.449219 328.53125 225.128906 328.667969 226.605469 Z M 328.667969 226.605469 " fill-opacity="1" fill-rule="nonzero"/><path fill="#e593b8" d="M 180.171875 226.457031 C 180.660156 227.972656 181.84375 229.160156 183.371094 229.625 C 184.746094 230.042969 186.414062 229.746094 187.355469 228.589844 C 188.019531 227.773438 188.292969 226.789062 188.300781 225.746094 C 188.304688 225.082031 187.714844 224.445312 187.03125 224.476562 C 186.339844 224.507812 185.769531 225.035156 185.765625 225.746094 C 185.761719 225.90625 185.75 226.066406 185.738281 226.226562 C 185.722656 226.414062 185.796875 225.890625 185.738281 226.203125 C 185.722656 226.28125 185.703125 226.359375 185.683594 226.4375 C 185.664062 226.5 185.644531 226.5625 185.625 226.628906 C 185.613281 226.660156 185.59375 226.695312 185.585938 226.730469 C 185.554688 226.84375 185.671875 226.539062 185.660156 226.554688 C 185.585938 226.664062 185.535156 226.800781 185.464844 226.914062 C 185.335938 227.121094 185.574219 226.785156 185.53125 226.835938 C 185.492188 226.875 185.457031 226.921875 185.417969 226.960938 C 185.382812 227 185.339844 227.039062 185.300781 227.074219 C 185.277344 227.09375 185.253906 227.113281 185.230469 227.132812 C 185.152344 227.210938 185.519531 226.941406 185.359375 227.035156 C 185.265625 227.085938 185.179688 227.144531 185.085938 227.195312 C 184.871094 227.308594 185.277344 227.125 185.199219 227.152344 C 185.144531 227.167969 185.085938 227.191406 185.03125 227.210938 C 184.972656 227.226562 184.726562 227.246094 184.695312 227.285156 C 184.726562 227.246094 185.089844 227.246094 184.824219 227.265625 C 184.761719 227.269531 184.699219 227.269531 184.636719 227.273438 C 184.527344 227.273438 184.417969 227.261719 184.304688 227.257812 C 184.21875 227.25 184.675781 227.320312 184.429688 227.269531 C 184.355469 227.257812 184.285156 227.242188 184.214844 227.226562 C 184.101562 227.195312 183.992188 227.164062 183.882812 227.125 C 183.851562 227.113281 183.820312 227.097656 183.789062 227.089844 C 183.667969 227.054688 184.011719 227.167969 183.976562 227.167969 C 183.929688 227.171875 183.835938 227.105469 183.792969 227.082031 C 183.679688 227.023438 183.570312 226.960938 183.460938 226.890625 C 183.410156 226.859375 183.363281 226.820312 183.3125 226.789062 C 183.160156 226.6875 183.574219 227.007812 183.367188 226.828125 C 183.253906 226.730469 183.144531 226.628906 183.042969 226.519531 C 182.996094 226.46875 182.953125 226.410156 182.90625 226.359375 C 182.804688 226.25 183.082031 226.609375 183.003906 226.488281 C 182.980469 226.453125 182.949219 226.414062 182.925781 226.378906 C 182.84375 226.257812 182.769531 226.132812 182.703125 226.003906 C 182.6875 225.96875 182.671875 225.933594 182.65625 225.902344 C 182.566406 225.726562 182.753906 226.167969 182.707031 226.023438 C 182.679688 225.941406 182.648438 225.863281 182.621094 225.78125 C 182.417969 225.152344 181.730469 224.679688 181.0625 224.898438 C 180.425781 225.101562 179.953125 225.78125 180.171875 226.457031 Z M 180.171875 226.457031 " fill-opacity="1" fill-rule="nonzero"/><path stroke-linecap="round" transform="matrix(0.970309, 0, 0, 0.970395, -26.40885, 45.833814)" fill="none" stroke-linejoin="miter" d="M 160.091748 167.624862 C 161.251172 169.367871 163.272112 170.507066 165.365517 170.603676 " stroke="#8965a9" stroke-width="0.65" stroke-opacity="1" stroke-miterlimit="10"/><path stroke-linecap="round" transform="matrix(0.970309, 0, 0, 0.970395, -26.40885, 45.833814)" fill="none" stroke-linejoin="miter" d="M 160.667434 164.839269 C 161.444409 167.383337 163.376782 169.549015 165.812378 170.615752 " stroke="#8965a9" stroke-width="0.65" stroke-opacity="1" stroke-miterlimit="10"/><path stroke-linecap="round" transform="matrix(0.970309, 0, 0, 0.970395, -26.40885, 45.833814)" fill="none" stroke-linejoin="miter" d="M 162.024121 163.502828 C 162.970179 166.167659 164.878397 168.478252 167.318019 169.907278 " stroke="#8965a9" stroke-width="0.65" stroke-opacity="1" stroke-miterlimit="10"/><path stroke-linecap="round" transform="matrix(0.970309, 0, 0, 0.970395, -26.40885, 45.833814)" fill="none" stroke-linejoin="miter" d="M 164.000778 162.122108 C 164.391278 164.710456 165.756017 167.141812 167.760854 168.824439 " stroke="#8965a9" stroke-width="0.65" stroke-opacity="1" stroke-miterlimit="10"/><path fill="#8965a9" d="M 144.789062 213.925781 C 144.789062 217.753906 141.683594 220.863281 137.851562 220.863281 C 134.019531 220.863281 130.914062 217.753906 130.914062 213.925781 C 130.914062 210.089844 134.019531 206.984375 137.851562 206.984375 C 141.683594 206.984375 144.789062 210.089844 144.789062 213.925781 Z M 144.789062 213.925781 " fill-opacity="1" fill-rule="nonzero"/><path fill="#ffffff" d="M 139.742188 212.03125 C 139.742188 214.03125 138.121094 215.65625 136.117188 215.65625 C 134.117188 215.65625 132.492188 214.03125 132.492188 212.03125 C 132.492188 210.03125 134.117188 208.40625 136.117188 208.40625 C 138.121094 208.40625 139.742188 210.03125 139.742188 212.03125 Z M 139.742188 212.03125 " fill-opacity="1" fill-rule="nonzero"/><path fill="#ffffff" d="M 142.941406 217.148438 C 142.941406 217.722656 142.480469 218.183594 141.910156 218.183594 C 141.339844 218.183594 140.878906 217.71875 140.878906 217.148438 C 140.878906 216.578125 141.339844 216.117188 141.910156 216.117188 C 142.480469 216.117188 142.941406 216.578125 142.941406 217.148438 Z M 142.941406 217.148438 " fill-opacity="1" fill-rule="nonzero"/><path fill="#ffffff" d="M 133.820312 217.363281 C 133.820312 217.777344 133.488281 218.109375 133.078125 218.109375 C 132.667969 218.109375 132.332031 217.777344 132.332031 217.363281 C 132.332031 216.953125 132.667969 216.621094 133.078125 216.621094 C 133.488281 216.621094 133.820312 216.953125 133.820312 217.363281 Z M 133.820312 217.363281 " fill-opacity="1" fill-rule="nonzero"/><path stroke-linecap="round" transform="matrix(0.970309, 0, 0, 0.970395, -26.40885, 45.833814)" fill="none" stroke-linejoin="miter" d="M 262.90608 167.624862 C 264.069529 169.367871 266.09047 170.507066 268.183874 170.603676 " stroke="#8965a9" stroke-width="0.65" stroke-opacity="1" stroke-miterlimit="10"/><path stroke-linecap="round" transform="matrix(0.970309, 0, 0, 0.970395, -26.40885, 45.833814)" fill="none" stroke-linejoin="miter" d="M 263.485792 164.839269 C 264.262767 167.383337 266.19514 169.549015 268.630735 170.615752 " stroke="#8965a9" stroke-width="0.65" stroke-opacity="1" stroke-miterlimit="10"/><path stroke-linecap="round" transform="matrix(0.970309, 0, 0, 0.970395, -26.40885, 45.833814)" fill="none" stroke-linejoin="miter" d="M 264.842479 163.502828 C 265.788536 166.167659 267.696755 168.478252 270.136376 169.907278 " stroke="#8965a9" stroke-width="0.65" stroke-opacity="1" stroke-miterlimit="10"/><path stroke-linecap="round" transform="matrix(0.970309, 0, 0, 0.970395, -26.40885, 45.833814)" fill="none" stroke-linejoin="miter" d="M 266.819135 162.122108 C 267.209636 164.710456 268.570349 167.141812 270.579212 168.824439 " stroke="#8965a9" stroke-width="0.65" stroke-opacity="1" stroke-miterlimit="10"/><path fill="#8965a9" d="M 244.554688 213.925781 C 244.554688 217.753906 241.449219 220.863281 237.617188 220.863281 C 233.785156 220.863281 230.679688 217.753906 230.679688 213.925781 C 230.679688 210.089844 233.785156 206.984375 237.617188 206.984375 C 241.449219 206.984375 244.554688 210.089844 244.554688 213.925781 Z M 244.554688 213.925781 " fill-opacity="1" fill-rule="nonzero"/><path fill="#ffffff" d="M 239.507812 212.03125 C 239.507812 214.03125 237.886719 215.65625 235.882812 215.65625 C 233.882812 215.65625 232.257812 214.03125 232.257812 212.03125 C 232.257812 210.03125 233.882812 208.40625 235.882812 208.40625 C 237.886719 208.40625 239.507812 210.03125 239.507812 212.03125 Z M 239.507812 212.03125 " fill-opacity="1" fill-rule="nonzero"/><path fill="#ffffff" d="M 242.707031 217.148438 C 242.707031 217.722656 242.246094 218.183594 241.675781 218.183594 C 241.105469 218.183594 240.644531 217.71875 240.644531 217.148438 C 240.644531 216.578125 241.105469 216.117188 241.675781 216.117188 C 242.246094 216.117188 242.707031 216.578125 242.707031 217.148438 Z M 242.707031 217.148438 " fill-opacity="1" fill-rule="nonzero"/><path fill="#ffffff" d="M 233.585938 217.363281 C 233.585938 217.777344 233.253906 218.109375 232.84375 218.109375 C 232.433594 218.109375 232.097656 217.777344 232.097656 217.363281 C 232.097656 216.953125 232.433594 216.621094 232.84375 216.621094 C 233.253906 216.621094 233.585938 216.953125 233.585938 217.363281 Z M 233.585938 217.363281 " fill-opacity="1" fill-rule="nonzero"/><path fill="#f5b8d5" d="M 143.132812 227.367188 C 141.210938 224.246094 137.171875 223.539062 133.515625 224.359375 C 131.867188 224.109375 130.222656 224.246094 128.828125 224.917969 C 124.394531 227.054688 123.785156 232.3125 126.984375 235.910156 C 133.105469 242.796875 149.175781 237.175781 143.132812 227.367188 Z M 136.90625 234.476562 C 137.65625 233.675781 137.746094 232.375 137.363281 231.1875 C 138.339844 232.097656 138.585938 233.441406 137 234.480469 C 136.96875 234.480469 136.9375 234.476562 136.90625 234.476562 Z M 129.914062 231.070312 C 129.769531 230.914062 129.660156 230.765625 129.578125 230.628906 C 129.632812 230.246094 129.792969 229.90625 130.015625 229.597656 C 129.882812 230.070312 129.851562 230.570312 129.914062 231.070312 Z M 129.914062 231.070312 " fill-opacity="1" fill-rule="nonzero"/><path fill="#f5b8d5" d="M 247.921875 227.367188 C 246 224.246094 241.964844 223.539062 238.308594 224.359375 C 236.660156 224.109375 235.015625 224.246094 233.621094 224.917969 C 229.1875 227.054688 228.574219 232.3125 231.773438 235.910156 C 237.898438 242.796875 253.964844 237.175781 247.921875 227.367188 Z M 241.695312 234.476562 C 242.445312 233.675781 242.535156 232.375 242.152344 231.1875 C 243.128906 232.097656 243.378906 233.441406 241.792969 234.480469 C 241.757812 234.480469 241.726562 234.476562 241.695312 234.476562 Z M 234.703125 231.070312 C 234.5625 230.914062 234.449219 230.765625 234.371094 230.628906 C 234.425781 230.246094 234.585938 229.90625 234.808594 229.597656 C 234.671875 230.070312 234.640625 230.570312 234.703125 231.070312 Z M 234.703125 231.070312 " fill-opacity="1" fill-rule="nonzero"/></svg>