<svg xmlns="http://www.w3.org/2000/svg" xmlns:xlink="http://www.w3.org/1999/xlink" width="480" zoomAndPan="magnify" viewBox="0 0 360 503.999982" height="672" preserveAspectRatio="xMidYMid meet" version="1.0"><defs><clipPath id="9174a4cfb8"><path d="M 342 98 L 360 98 L 360 193 L 342 193 Z M 342 98 " clip-rule="nonzero"/></clipPath><clipPath id="b6a2240753"><path d="M 284.101562 15.558594 L 361.761719 2.515625 L 392.9375 188.167969 L 315.277344 201.207031 Z M 284.101562 15.558594 " clip-rule="nonzero"/></clipPath><clipPath id="bdc0f1ef13"><path d="M 284.101562 15.558594 L 361.761719 2.515625 L 392.9375 188.167969 L 315.277344 201.207031 Z M 284.101562 15.558594 " clip-rule="nonzero"/></clipPath><clipPath id="0c3f5b38fb"><path d="M 293 11 L 360 11 L 360 102 L 293 102 Z M 293 11 " clip-rule="nonzero"/></clipPath><clipPath id="afdad574fb"><path d="M 284.101562 15.558594 L 361.761719 2.515625 L 392.9375 188.167969 L 315.277344 201.207031 Z M 284.101562 15.558594 " clip-rule="nonzero"/></clipPath><clipPath id="238049425f"><path d="M 284.101562 15.558594 L 361.761719 2.515625 L 392.9375 188.167969 L 315.277344 201.207031 Z M 284.101562 15.558594 " clip-rule="nonzero"/></clipPath><clipPath id="ddbb3a4b65"><path d="M 302 23 L 316 23 L 316 49 L 302 49 Z M 302 23 " clip-rule="nonzero"/></clipPath><clipPath id="e7f4e69eb9"><path d="M 284.101562 15.558594 L 361.761719 2.515625 L 392.9375 188.167969 L 315.277344 201.207031 Z M 284.101562 15.558594 " clip-rule="nonzero"/></clipPath><clipPath id="06748c1601"><path d="M 284.101562 15.558594 L 361.761719 2.515625 L 392.9375 188.167969 L 315.277344 201.207031 Z M 284.101562 15.558594 " clip-rule="nonzero"/></clipPath><clipPath id="69a4db29e2"><path d="M 9 125 L 27 125 L 27 221 L 9 221 Z M 9 125 " clip-rule="nonzero"/></clipPath><clipPath id="b2a344c499"><path d="M 4.246094 25.828125 L 80.929688 43.75 L 38.09375 227.0625 L -38.589844 209.140625 Z M 4.246094 25.828125 " clip-rule="nonzero"/></clipPath><clipPath id="87b73f5069"><path d="M 4.246094 25.828125 L 80.929688 43.75 L 38.09375 227.0625 L -38.589844 209.140625 Z M 4.246094 25.828125 " clip-rule="nonzero"/></clipPath><clipPath id="107189e221"><path d="M 4.246094 25.828125 L 80.929688 43.75 L 38.09375 227.0625 L -38.589844 209.140625 Z M 4.246094 25.828125 " clip-rule="nonzero"/></clipPath><clipPath id="28809884d4"><path d="M 0 36 L 68 36 L 68 129 L 0 129 Z M 0 36 " clip-rule="nonzero"/></clipPath><clipPath id="735a9f563d"><path d="M 4.246094 25.828125 L 80.929688 43.75 L 38.09375 227.0625 L -38.589844 209.140625 Z M 4.246094 25.828125 " clip-rule="nonzero"/></clipPath><clipPath id="0bb4b427e5"><path d="M 4.246094 25.828125 L 80.929688 43.75 L 38.09375 227.0625 L -38.589844 209.140625 Z M 4.246094 25.828125 " clip-rule="nonzero"/></clipPath><clipPath id="e52fd24672"><path d="M 4.246094 25.828125 L 80.929688 43.75 L 38.09375 227.0625 L -38.589844 209.140625 Z M 4.246094 25.828125 " clip-rule="nonzero"/></clipPath><clipPath id="9d5e2b03cc"><path d="M 9 44 L 30 44 L 30 65 L 9 65 Z M 9 44 " clip-rule="nonzero"/></clipPath><clipPath id="5db06f8089"><path d="M 4.246094 25.828125 L 80.929688 43.75 L 38.09375 227.0625 L -38.589844 209.140625 Z M 4.246094 25.828125 " clip-rule="nonzero"/></clipPath><clipPath id="b2a3e35c99"><path d="M 4.246094 25.828125 L 80.929688 43.75 L 38.09375 227.0625 L -38.589844 209.140625 Z M 4.246094 25.828125 " clip-rule="nonzero"/></clipPath><clipPath id="2e3c5845be"><path d="M 4.246094 25.828125 L 80.929688 43.75 L 38.09375 227.0625 L -38.589844 209.140625 Z M 4.246094 25.828125 " clip-rule="nonzero"/></clipPath><clipPath id="2317db0900"><path d="M 63 436 L 95 436 L 95 504 L 63 504 Z M 63 436 " clip-rule="nonzero"/></clipPath><clipPath id="fc2603ac23"><path d="M -1.480469 359.28125 L 74.699219 339.332031 L 122.386719 521.441406 L 46.203125 541.390625 Z M -1.480469 359.28125 " clip-rule="nonzero"/></clipPath><clipPath id="e1d47b4a71"><path d="M -1.480469 359.28125 L 74.699219 339.332031 L 122.386719 521.441406 L 46.203125 541.390625 Z M -1.480469 359.28125 " clip-rule="nonzero"/></clipPath><clipPath id="e0e8462ce6"><path d="M 11 351 L 85 351 L 85 440 L 11 440 Z M 11 351 " clip-rule="nonzero"/></clipPath><clipPath id="3522a1263d"><path d="M -1.480469 359.28125 L 74.699219 339.332031 L 122.386719 521.441406 L 46.203125 541.390625 Z M -1.480469 359.28125 " clip-rule="nonzero"/></clipPath><clipPath id="c86867f12e"><path d="M -1.480469 359.28125 L 74.699219 339.332031 L 122.386719 521.441406 L 46.203125 541.390625 Z M -1.480469 359.28125 " clip-rule="nonzero"/></clipPath><clipPath id="a33986fcc8"><path d="M 19 364 L 31 364 L 31 391 L 19 391 Z M 19 364 " clip-rule="nonzero"/></clipPath><clipPath id="ff05d652f5"><path d="M -1.480469 359.28125 L 74.699219 339.332031 L 122.386719 521.441406 L 46.203125 541.390625 Z M -1.480469 359.28125 " clip-rule="nonzero"/></clipPath><clipPath id="0de56d350d"><path d="M -1.480469 359.28125 L 74.699219 339.332031 L 122.386719 521.441406 L 46.203125 541.390625 Z M -1.480469 359.28125 " clip-rule="nonzero"/></clipPath><clipPath id="8a2cd5e452"><path d="M 0 242 L 19 242 L 19 336 L 0 336 Z M 0 242 " clip-rule="nonzero"/></clipPath><clipPath id="11f7517300"><path d="M 6.433594 142.132812 L 80.929688 167.667969 L 19.878906 345.746094 L -54.617188 320.207031 Z M 6.433594 142.132812 " clip-rule="nonzero"/></clipPath><clipPath id="fe0524bf6e"><path d="M 6.433594 142.132812 L 80.929688 167.667969 L 19.878906 345.746094 L -54.617188 320.207031 Z M 6.433594 142.132812 " clip-rule="nonzero"/></clipPath><clipPath id="7b8f6905d9"><path d="M 0 155 L 65 155 L 65 247 L 0 247 Z M 0 155 " clip-rule="nonzero"/></clipPath><clipPath id="0f86cef3c0"><path d="M 6.433594 142.132812 L 80.929688 167.667969 L 19.878906 345.746094 L -54.617188 320.207031 Z M 6.433594 142.132812 " clip-rule="nonzero"/></clipPath><clipPath id="698a7524be"><path d="M 6.433594 142.132812 L 80.929688 167.667969 L 19.878906 345.746094 L -54.617188 320.207031 Z M 6.433594 142.132812 " clip-rule="nonzero"/></clipPath><clipPath id="7ef17f2444"><path d="M 7 163 L 30 163 L 30 182 L 7 182 Z M 7 163 " clip-rule="nonzero"/></clipPath><clipPath id="830602a828"><path d="M 6.433594 142.132812 L 80.929688 167.667969 L 19.878906 345.746094 L -54.617188 320.207031 Z M 6.433594 142.132812 " clip-rule="nonzero"/></clipPath><clipPath id="c98679f386"><path d="M 6.433594 142.132812 L 80.929688 167.667969 L 19.878906 345.746094 L -54.617188 320.207031 Z M 6.433594 142.132812 " clip-rule="nonzero"/></clipPath><clipPath id="d8ad465739"><path d="M 341 212 L 360 212 L 360 300 L 341 300 Z M 341 212 " clip-rule="nonzero"/></clipPath><clipPath id="f02fdf2419"><path d="M 266.898438 143.902344 L 339.964844 114.53125 L 410.179688 289.195312 L 337.113281 318.566406 Z M 266.898438 143.902344 " clip-rule="nonzero"/></clipPath><clipPath id="f86e76eda7"><path d="M 266.898438 143.902344 L 339.964844 114.53125 L 410.179688 289.195312 L 337.113281 318.566406 Z M 266.898438 143.902344 " clip-rule="nonzero"/></clipPath><clipPath id="cc16d540cc"><path d="M 282 130 L 359 130 L 359 217 L 282 217 Z M 282 130 " clip-rule="nonzero"/></clipPath><clipPath id="cb3d4931f1"><path d="M 266.898438 143.902344 L 339.964844 114.53125 L 410.179688 289.195312 L 337.113281 318.566406 Z M 266.898438 143.902344 " clip-rule="nonzero"/></clipPath><clipPath id="d2919f12ac"><path d="M 266.898438 143.902344 L 339.964844 114.53125 L 410.179688 289.195312 L 337.113281 318.566406 Z M 266.898438 143.902344 " clip-rule="nonzero"/></clipPath><clipPath id="62df38ca41"><path d="M 290 145 L 300 145 L 300 172 L 290 172 Z M 290 145 " clip-rule="nonzero"/></clipPath><clipPath id="e65c2e3efd"><path d="M 266.898438 143.902344 L 339.964844 114.53125 L 410.179688 289.195312 L 337.113281 318.566406 Z M 266.898438 143.902344 " clip-rule="nonzero"/></clipPath><clipPath id="163c02608d"><path d="M 266.898438 143.902344 L 339.964844 114.53125 L 410.179688 289.195312 L 337.113281 318.566406 Z M 266.898438 143.902344 " clip-rule="nonzero"/></clipPath><clipPath id="bbcb732bd2"><path d="M 245 326 L 360 326 L 360 504 L 245 504 Z M 245 326 " clip-rule="nonzero"/></clipPath><clipPath id="7f5917012e"><path d="M 294.257812 323.386719 L 369.960938 345.078125 L 318.117188 526.046875 L 242.410156 504.355469 Z M 294.257812 323.386719 " clip-rule="nonzero"/></clipPath><clipPath id="457f2c18a7"><path d="M 24 94 L 58 94 L 58 178 L 24 178 Z M 24 94 " clip-rule="nonzero"/></clipPath><clipPath id="a9b239dbfe"><path d="M 49.257812 -2.613281 L 124.960938 19.078125 L 73.117188 200.046875 L -2.589844 178.355469 Z M 49.257812 -2.613281 " clip-rule="nonzero"/></clipPath><clipPath id="fbb71d885a"><path d="M 124.839844 19.042969 L 49.132812 -2.648438 L -2.710938 178.320312 L 72.992188 200.011719 Z M 124.839844 19.042969 " clip-rule="nonzero"/></clipPath><clipPath id="8587e334fd"><path d="M 37 10 L 112 10 L 112 99 L 37 99 Z M 37 10 " clip-rule="nonzero"/></clipPath><clipPath id="4997f22318"><path d="M 49.257812 -2.613281 L 124.960938 19.078125 L 73.117188 200.046875 L -2.589844 178.355469 Z M 49.257812 -2.613281 " clip-rule="nonzero"/></clipPath><clipPath id="e2161badf7"><path d="M 124.839844 19.042969 L 49.132812 -2.648438 L -2.710938 178.320312 L 72.992188 200.011719 Z M 124.839844 19.042969 " clip-rule="nonzero"/></clipPath><clipPath id="340557338d"><path d="M 92 23 L 104 23 L 104 50 L 92 50 Z M 92 23 " clip-rule="nonzero"/></clipPath><clipPath id="a93416c000"><path d="M 49.257812 -2.613281 L 124.960938 19.078125 L 73.117188 200.046875 L -2.589844 178.355469 Z M 49.257812 -2.613281 " clip-rule="nonzero"/></clipPath><clipPath id="4a51bb5758"><path d="M 124.839844 19.042969 L 49.132812 -2.648438 L -2.710938 178.320312 L 72.992188 200.011719 Z M 124.839844 19.042969 " clip-rule="nonzero"/></clipPath><clipPath id="04b62300e8"><rect x="0" width="115" y="0" height="178"/></clipPath></defs><g clip-path="url(#9174a4cfb8)"><g clip-path="url(#b6a2240753)"><g clip-path="url(#bdc0f1ef13)"><path fill="#f9feff" d="M 343.507812 99.140625 C 343.308594 98.25 341.894531 98.488281 342.082031 99.328125 C 345.472656 115.171875 342.296875 131.824219 347.054688 147.433594 C 351.597656 162.351562 365.957031 174.992188 363.363281 191.644531 C 363.222656 192.542969 364.65625 192.691406 364.796875 191.792969 C 367.339844 175.441406 354.007812 163.113281 348.96875 148.714844 C 343.429688 132.796875 346.976562 115.453125 343.507812 99.140625 Z M 343.507812 99.140625 " fill-opacity="1" fill-rule="nonzero"/></g></g></g><g clip-path="url(#0c3f5b38fb)"><g clip-path="url(#afdad574fb)"><g clip-path="url(#238049425f)"><path fill="#fcef83" d="M 364.6875 44.265625 C 356.816406 20.824219 335.214844 6.972656 316.503906 13.222656 C 297.792969 19.472656 288.9375 43.632812 296.796875 67.023438 C 303.703125 87.617188 326.535156 98.980469 339.957031 98.8125 L 339.644531 101.585938 L 343.863281 100.097656 L 346.957031 100.597656 L 345.710938 97.796875 C 358.550781 92.730469 372.390625 67.296875 364.6875 44.265625 Z M 364.6875 44.265625 " fill-opacity="1" fill-rule="nonzero"/></g></g></g><g clip-path="url(#ddbb3a4b65)"><g clip-path="url(#e7f4e69eb9)"><g clip-path="url(#06748c1601)"><path fill="#ffffff" d="M 315.402344 26.613281 C 316.277344 25.738281 313.714844 22.917969 312.929688 23.726562 C 306.695312 29.679688 303.019531 37.578125 302.367188 46.136719 C 302.308594 47.214844 305.050781 49.667969 305.171875 48.09375 C 305.839844 39.921875 309.515625 32.3125 315.402344 26.613281 Z M 315.402344 26.613281 " fill-opacity="1" fill-rule="nonzero"/></g></g></g><g clip-path="url(#69a4db29e2)"><g clip-path="url(#b2a344c499)"><g clip-path="url(#87b73f5069)"><g clip-path="url(#107189e221)"><path fill="#c9c6bc" d="M 26.867188 125.980469 C 27.03125 125.082031 25.628906 124.753906 25.480469 125.605469 C 22.492188 141.546875 13.125 155.703125 11.492188 171.960938 C 9.933594 187.496094 18.320312 204.71875 9.492188 219.097656 C 9.015625 219.871094 10.28125 220.5625 10.757812 219.785156 C 19.425781 205.664062 11.863281 189.128906 12.769531 173.882812 C 13.796875 157.042969 23.773438 142.386719 26.867188 125.980469 Z M 26.867188 125.980469 " fill-opacity="1" fill-rule="nonzero"/></g></g></g></g><g clip-path="url(#28809884d4)"><g clip-path="url(#735a9f563d)"><g clip-path="url(#0bb4b427e5)"><g clip-path="url(#e52fd24672)"><path fill="#ff917b" d="M 67.632812 83.472656 C 69.414062 58.78125 54.800781 37.644531 35.097656 36.1875 C 15.390625 34.734375 -2.125 53.632812 -3.894531 78.273438 C -5.46875 99.960938 11.246094 119.277344 23.714844 124.308594 L 22.355469 126.746094 L 26.828125 127.003906 L 29.492188 128.660156 L 29.421875 125.59375 C 43.246094 125.871094 65.859375 107.71875 67.632812 83.472656 Z M 67.632812 83.472656 " fill-opacity="1" fill-rule="nonzero"/></g></g></g></g><g clip-path="url(#9d5e2b03cc)"><g clip-path="url(#5db06f8089)"><g clip-path="url(#b2a3e35c99)"><g clip-path="url(#2e3c5845be)"><path fill="#ffffff" d="M 28.90625 48.132812 C 30.050781 47.664062 28.773438 44.066406 27.734375 44.511719 C 19.671875 47.601562 13.226562 53.476562 9.320312 61.132812 C 8.847656 62.101562 10.433594 65.429688 11.15625 64.019531 C 14.929688 56.730469 21.265625 51.121094 28.90625 48.132812 Z M 28.90625 48.132812 " fill-opacity="1" fill-rule="nonzero"/></g></g></g></g><g clip-path="url(#2317db0900)"><g clip-path="url(#fc2603ac23)"><g clip-path="url(#e1d47b4a71)"><path fill="#c9c6bc" d="M 65.175781 437.203125 C 64.898438 436.332031 63.507812 436.699219 63.773438 437.519531 C 68.570312 452.992188 66.898438 469.863281 73.035156 484.984375 C 78.898438 499.4375 94.332031 510.738281 93.242188 527.554688 C 93.179688 528.460938 94.621094 528.480469 94.679688 527.574219 C 95.75 511.058594 81.367188 499.976562 75.058594 486.089844 C 68.117188 470.730469 70.089844 453.140625 65.175781 437.203125 Z M 65.175781 437.203125 " fill-opacity="1" fill-rule="nonzero"/></g></g></g><g clip-path="url(#e0e8462ce6)"><g clip-path="url(#3522a1263d)"><g clip-path="url(#c86867f12e)"><path fill="#f296bf" d="M 81.351562 380.648438 C 71.414062 358.007812 48.660156 346.148438 30.582031 354.050781 C 12.507812 361.953125 5.851562 386.808594 15.777344 409.402344 C 24.5 429.292969 48.257812 438.5625 61.609375 437.195312 L 61.546875 439.984375 L 65.617188 438.125 L 68.742188 438.347656 L 67.25 435.667969 C 79.582031 429.46875 91.085938 402.898438 81.351562 380.648438 Z M 81.351562 380.648438 " fill-opacity="1" fill-rule="nonzero"/></g></g></g><g clip-path="url(#a33986fcc8)"><g clip-path="url(#ff05d652f5)"><g clip-path="url(#0de56d350d)"><path fill="#ffffff" d="M 30.6875 367.488281 C 31.476562 366.535156 28.671875 363.957031 27.960938 364.835938 C 22.285156 371.320312 19.335938 379.515625 19.453125 388.097656 C 19.488281 389.175781 22.4375 391.375 22.421875 389.796875 C 22.355469 381.597656 25.332031 373.691406 30.6875 367.488281 Z M 30.6875 367.488281 " fill-opacity="1" fill-rule="nonzero"/></g></g></g><g clip-path="url(#8a2cd5e452)"><g clip-path="url(#11f7517300)"><g clip-path="url(#fe0524bf6e)"><path fill="#ffffff" d="M 18.839844 243.921875 C 19.089844 243.046875 17.730469 242.578125 17.496094 243.410156 C 12.925781 258.953125 2.199219 272.078125 -1.054688 288.070312 C -4.167969 303.351562 2.433594 321.308594 -7.78125 334.710938 C -8.332031 335.433594 -7.144531 336.246094 -6.59375 335.523438 C 3.4375 322.359375 -2.414062 305.171875 0.015625 290.109375 C 2.734375 273.476562 14.113281 259.917969 18.839844 243.921875 Z M 18.839844 243.921875 " fill-opacity="1" fill-rule="nonzero"/></g></g></g><g clip-path="url(#7b8f6905d9)"><g clip-path="url(#0f86cef3c0)"><g clip-path="url(#698a7524be)"><path fill="#c0e471" d="M 63.605469 205.765625 C 67.855469 181.410156 55.464844 158.941406 36.035156 155.519531 C 16.609375 152.097656 -2.691406 169.121094 -6.925781 193.429688 C -10.667969 214.824219 3.996094 235.695312 15.871094 241.941406 L 14.277344 244.230469 L 18.695312 244.933594 L 21.175781 246.847656 L 21.414062 243.792969 C 35.117188 245.453125 59.402344 229.683594 63.605469 205.765625 Z M 63.605469 205.765625 " fill-opacity="1" fill-rule="nonzero"/></g></g></g><g clip-path="url(#7ef17f2444)"><g clip-path="url(#830602a828)"><g clip-path="url(#c98679f386)"><path fill="#edffd1" d="M 28.6875 166.765625 C 29.871094 166.414062 28.964844 162.710938 27.886719 163.050781 C 19.570312 165.3125 12.574219 170.507812 7.925781 177.71875 C 7.355469 178.636719 8.601562 182.101562 9.460938 180.777344 C 13.9375 173.910156 20.792969 168.972656 28.6875 166.765625 Z M 28.6875 166.765625 " fill-opacity="1" fill-rule="nonzero"/></g></g></g><g clip-path="url(#d8ad465739)"><g clip-path="url(#f02fdf2419)"><g clip-path="url(#f86e76eda7)"><path fill="#ffffff" d="M 342.828125 212.820312 C 342.445312 211.996094 341.113281 212.53125 341.476562 213.3125 C 348.179688 228.0625 348.644531 245.007812 356.636719 259.238281 C 364.269531 272.835938 381.003906 282.105469 382.035156 298.925781 C 382.089844 299.835938 383.523438 299.671875 383.46875 298.765625 C 382.453125 282.246094 366.789062 273.0625 358.78125 260.078125 C 349.960938 245.714844 349.710938 228.015625 342.828125 212.820312 Z M 342.828125 212.820312 " fill-opacity="1" fill-rule="nonzero"/></g></g></g><g clip-path="url(#cc16d540cc)"><g clip-path="url(#cb3d4931f1)"><g clip-path="url(#d2919f12ac)"><path fill="#9ddaf8" d="M 351.761719 154.683594 C 339.054688 133.472656 314.988281 124.570312 298.050781 134.683594 C 281.113281 144.792969 277.636719 170.292969 290.324219 191.457031 C 301.480469 210.09375 326.214844 216.300781 339.289062 213.261719 L 339.578125 216.035156 L 343.378906 213.683594 L 346.511719 213.507812 L 344.691406 211.039062 C 356.148438 203.339844 364.21875 175.53125 351.761719 154.683594 Z M 351.761719 154.683594 " fill-opacity="1" fill-rule="nonzero"/></g></g></g><g clip-path="url(#62df38ca41)"><g clip-path="url(#e65c2e3efd)"><g clip-path="url(#163c02608d)"><path fill="#c5ebfd" d="M 299.84375 148 C 300.507812 146.957031 297.402344 144.75 296.808594 145.710938 C 291.992188 152.859375 290.09375 161.359375 291.292969 169.859375 C 291.460938 170.925781 294.667969 172.734375 294.449219 171.167969 C 293.351562 163.042969 295.3125 154.824219 299.84375 148 Z M 299.84375 148 " fill-opacity="1" fill-rule="nonzero"/></g></g></g><g clip-path="url(#bbcb732bd2)"><g clip-path="url(#7f5917012e)"><g transform="matrix(1, 0, 0, 1, 245, 326)"><g clip-path="url(#04b62300e8)"><g clip-path="url(#457f2c18a7)"><g clip-path="url(#a9b239dbfe)"><g clip-path="url(#fbb71d885a)"><path fill="#ffffff" d="M 56.414062 95.414062 C 56.710938 94.554688 58.089844 94.949219 57.808594 95.765625 C 52.660156 111.125 53.941406 128.027344 47.460938 143.007812 C 41.265625 157.320312 25.582031 168.265625 26.285156 185.101562 C 26.324219 186.011719 24.882812 185.996094 24.84375 185.089844 C 24.152344 168.554688 38.789062 157.804688 45.414062 144.0625 C 52.707031 128.871094 51.132812 111.234375 56.414062 95.414062 Z M 56.414062 95.414062 " fill-opacity="1" fill-rule="nonzero"/></g></g></g><g clip-path="url(#8587e334fd)"><g clip-path="url(#4997f22318)"><g clip-path="url(#e2161badf7)"><path fill="#fdcbdf" d="M 41.539062 38.507812 C 51.992188 16.101562 75.011719 4.765625 92.902344 13.078125 C 110.792969 21.390625 116.878906 46.394531 106.4375 68.757812 C 97.261719 88.441406 73.292969 97.164062 59.976562 95.492188 L 59.976562 98.277344 L 55.953125 96.328125 L 52.820312 96.480469 L 54.375 93.835938 C 42.1875 87.355469 31.292969 60.527344 41.539062 38.507812 Z M 41.539062 38.507812 " fill-opacity="1" fill-rule="nonzero"/></g></g></g><g clip-path="url(#340557338d)"><g clip-path="url(#a93416c000)"><g clip-path="url(#4a51bb5758)"><path fill="#f9feff" d="M 92.492188 26.507812 C 91.722656 25.542969 94.585938 23.023438 95.273438 23.917969 C 100.800781 30.535156 103.5625 38.796875 103.25 47.371094 C 103.1875 48.449219 100.1875 50.578125 100.242188 49 C 100.496094 40.804688 97.703125 32.832031 92.492188 26.507812 Z M 92.492188 26.507812 " fill-opacity="1" fill-rule="nonzero"/></g></g></g></g></g></g></g></svg>