<svg xmlns="http://www.w3.org/2000/svg" xmlns:xlink="http://www.w3.org/1999/xlink" width="480" zoomAndPan="magnify" viewBox="0 0 360 503.999982" height="672" preserveAspectRatio="xMidYMid meet" version="1.0"><defs><clipPath id="7254cb593c"><path d="M 10.28125 239.566406 L 173.78125 239.566406 L 173.78125 331.816406 L 10.28125 331.816406 Z M 10.28125 239.566406 " clip-rule="nonzero"/></clipPath></defs><g clip-path="url(#7254cb593c)"><path fill="#f9feff" d="M 173.929688 295.402344 C 173.929688 308.800781 163.070312 319.65625 149.671875 319.65625 C 149.207031 319.65625 148.738281 319.65625 148.238281 319.625 C 145.5625 319.457031 142.992188 318.890625 140.617188 317.921875 C 139.148438 319.65625 137.542969 321.261719 135.808594 322.730469 C 129.058594 328.410156 120.335938 331.851562 110.816406 331.851562 C 102.460938 331.851562 94.710938 329.214844 88.363281 324.703125 C 86.492188 325.339844 84.554688 325.804688 82.582031 326.140625 C 80.441406 326.507812 78.269531 326.675781 76.03125 326.675781 C 69.015625 326.675781 62.433594 324.804688 56.71875 321.5625 C 54.246094 320.160156 51.976562 318.488281 49.871094 316.585938 C 45.695312 319.957031 40.382812 321.996094 34.601562 321.996094 C 25.144531 321.996094 16.960938 316.585938 12.949219 308.699219 C 11.277344 305.390625 10.34375 301.683594 10.34375 297.738281 C 10.34375 284.339844 21.203125 273.480469 34.601562 273.480469 C 34.703125 273.480469 34.800781 273.480469 34.902344 273.480469 C 37.40625 254.335938 53.714844 239.566406 73.492188 239.566406 C 86.023438 239.566406 97.183594 245.515625 104.265625 254.738281 C 106.40625 254.371094 108.578125 254.203125 110.816406 254.203125 C 124.515625 254.203125 136.542969 261.285156 143.457031 271.976562 C 145.429688 271.445312 147.535156 271.175781 149.671875 271.175781 C 162.570312 271.175781 173.128906 281.234375 173.898438 293.964844 C 173.898438 294.429688 173.929688 294.898438 173.929688 295.402344 Z M 173.929688 295.402344 " fill-opacity="1" fill-rule="nonzero"/></g></svg>