<svg xmlns="http://www.w3.org/2000/svg" xmlns:xlink="http://www.w3.org/1999/xlink" width="480" zoomAndPan="magnify" viewBox="0 0 360 503.999982" height="672" preserveAspectRatio="xMidYMid meet" version="1.0"><defs><clipPath id="9eccece427"><path d="M 205.304688 231.742188 L 350.804688 231.742188 L 350.804688 313.492188 L 205.304688 313.492188 Z M 205.304688 231.742188 " clip-rule="nonzero"/></clipPath><clipPath id="6d1eb5054b"><path d="M 0.433594 0.742188 L 145.804688 0.742188 L 145.804688 82.492188 L 0.433594 82.492188 Z M 0.433594 0.742188 " clip-rule="nonzero"/></clipPath><clipPath id="32140936cb"><rect x="0" width="146" y="0" height="83"/></clipPath></defs><g clip-path="url(#9eccece427)"><g transform="matrix(1, 0, 0, 1, 205, 231)"><g clip-path="url(#32140936cb)"><g clip-path="url(#6d1eb5054b)"><path fill="#f9feff" d="M 0.359375 50.40625 C 0.359375 62.324219 10.019531 71.984375 21.9375 71.984375 C 22.355469 71.984375 22.769531 71.984375 23.214844 71.953125 C 25.59375 71.804688 27.882812 71.300781 29.992188 70.4375 C 31.300781 71.984375 32.726562 73.410156 34.273438 74.71875 C 40.277344 79.769531 48.03125 82.832031 56.503906 82.832031 C 63.933594 82.832031 70.828125 80.484375 76.476562 76.472656 C 78.140625 77.035156 79.863281 77.453125 81.617188 77.75 C 83.519531 78.074219 85.453125 78.222656 87.441406 78.222656 C 93.683594 78.222656 99.539062 76.558594 104.621094 73.675781 C 106.820312 72.429688 108.84375 70.941406 110.714844 69.25 C 114.429688 72.25 119.15625 74.0625 124.296875 74.0625 C 132.707031 74.0625 139.988281 69.25 143.554688 62.234375 C 145.042969 59.292969 145.875 55.992188 145.875 52.484375 C 145.875 40.566406 136.214844 30.910156 124.296875 30.910156 C 124.207031 30.910156 124.117188 30.910156 124.03125 30.910156 C 121.800781 13.878906 107.296875 0.742188 89.703125 0.742188 C 78.554688 0.742188 68.628906 6.03125 62.328125 14.234375 C 60.425781 13.90625 58.496094 13.757812 56.503906 13.757812 C 44.316406 13.757812 33.617188 20.058594 27.464844 29.570312 C 25.710938 29.09375 23.839844 28.859375 21.9375 28.859375 C 10.464844 28.859375 1.074219 37.804688 0.390625 49.128906 C 0.390625 49.542969 0.359375 49.960938 0.359375 50.40625 Z M 0.359375 50.40625 " fill-opacity="1" fill-rule="nonzero"/></g></g></g></g></svg>